<svg width="106" height="32" viewBox="0 0 106 32" fill="none" xmlns="http://www.w3.org/2000/svg">
<path d="M7.17795 27.4625C5.92598 26.294 5.53648 23.9013 6.06509 22.1486C6.9832 23.2614 8.23517 23.5953 9.54278 23.8179C11.5459 24.0961 13.5213 23.9848 15.3853 23.0667L16.053 22.6772C16.2199 23.178 16.2756 23.7066 16.1921 24.2352C16.053 25.4871 15.4131 26.4609 14.4115 27.2121C14.022 27.5181 13.5769 27.7685 13.1596 28.0467C11.8798 28.937 11.5459 29.9386 12.0467 31.4131V31.5801C11.4387 31.3099 10.9252 30.8643 10.5722 30.3003C10.205 29.7173 10.012 29.0417 10.0157 28.3528C10.0157 28.0189 10.0157 27.6572 9.9601 27.3234C9.84881 26.4887 9.45931 26.127 8.70813 26.0992C8.35874 26.0793 8.01398 26.1868 7.73774 26.4016C7.4615 26.6165 7.2725 26.9242 7.20577 27.2677L7.17795 27.4625Z" fill="#ACA71F"/>
<path d="M0 21.8425C0 21.8425 3.72808 20.0341 7.45617 20.0341L10.2661 11.326C10.3774 10.9087 10.6835 10.6305 11.0173 10.6305C11.379 10.6305 11.685 10.9087 11.7963 11.326L14.5785 20.0341C19.0299 20.0341 22.0625 21.8425 22.0625 21.8425L15.7192 4.59319C15.5522 4.0924 15.2462 3.75854 14.8289 3.75854H7.2336C6.81627 3.75854 6.53806 4.0924 6.34331 4.59319L0 21.8425ZM39.2283 16.3061C39.2283 17.8362 37.3365 18.7543 34.7213 18.7543C32.9963 18.7543 32.4121 18.337 32.4121 17.4467C32.4121 16.5008 33.1354 16.0557 34.8604 16.0557C36.3906 16.0557 37.726 16.0557 39.2283 16.2782V16.3061ZM39.2562 14.4142C37.9264 14.1651 36.5746 14.0532 35.222 14.0803C30.2976 14.0803 27.9885 15.2488 27.9885 17.9753C27.9885 20.7853 29.5743 21.8704 33.2189 21.8704C36.3349 21.8704 38.4493 21.0914 39.2283 19.1438H39.3396L39.3118 20.4515C39.3118 21.453 39.4787 21.5365 40.2856 21.5365H44.1249C43.9024 20.9244 43.7911 19.2551 43.7911 17.8084L43.8467 13.5239C43.8467 10.3244 41.927 8.29345 35.9176 8.29345C33.3302 8.29345 30.4646 8.7386 28.2667 9.40631C28.4892 10.2688 28.7675 12.0215 28.9066 13.1622C31.026 12.3021 33.2966 11.8763 35.5837 11.9103C38.4772 11.9103 39.2562 12.5501 39.2562 13.8856V14.442V14.4142ZM49.8005 17.1963C49.2719 17.2798 48.5486 17.2798 47.853 17.2798C47.193 17.2818 46.5334 17.2446 45.8777 17.1685L45.8499 17.7249C45.8499 20.368 47.5748 21.8982 53.6677 21.8982C59.3989 21.8982 61.263 20.368 61.263 17.6971C61.263 15.1375 60.0388 13.8856 54.5858 13.6074C50.357 13.4404 49.9675 12.9675 49.9675 12.4389C49.9675 11.8268 50.5239 11.4929 53.3617 11.4929C56.3108 11.4929 57.0898 11.9103 57.0898 12.7449V12.9396C58.3967 12.8794 59.7057 12.8794 61.0126 12.9396V12.4667C61.0126 9.35067 58.453 8.32127 53.4451 8.32127C47.7974 8.32127 45.9333 9.71235 45.9333 12.3832C45.9333 14.8037 47.4357 16.3061 52.8331 16.5564C56.8115 16.6677 57.2845 17.1129 57.2845 17.7249C57.2845 18.3927 56.6168 18.6987 53.8068 18.6987C50.6073 18.6987 49.8005 18.2536 49.8005 17.3076V17.1963ZM68.1627 6.03991C66.4769 7.50307 64.5067 8.60183 62.3759 9.26721V12.2719H63.7669V16.8347C63.7669 19.6168 65.2415 21.7591 69.832 21.7591C71.7795 21.7591 73.0593 21.5365 74.673 21.2026C74.506 20.1732 74.3113 18.5874 74.2556 17.3633C73.1203 17.7117 71.9376 17.8806 70.7501 17.8641C68.9139 17.8641 68.1627 17.3633 68.1627 15.8887V12.3276C70.5554 12.3276 72.9202 12.3832 74.3113 12.4389C74.3113 11.326 74.3391 9.74017 74.3948 8.68295L68.2462 8.7386L68.3018 6.03991H68.1627ZM80.599 11.632L80.6824 8.68295H76.4814C76.537 10.4914 76.537 12.3832 76.537 15.0819C76.537 17.8641 76.537 19.7281 76.4814 21.5365H81.2388C81.1554 20.2567 81.1554 18.1145 81.1554 16.2782C81.1554 13.4126 82.3239 12.578 84.9669 12.578C86.1911 12.578 87.0814 12.7171 87.8326 12.9953C87.8604 11.9381 88.0829 9.82364 88.1942 8.90553C87.3093 8.64337 86.3907 8.51215 85.4677 8.51603C83.1864 8.51603 81.5171 9.43414 80.7381 11.6599L80.5711 11.632H80.599ZM101.493 15.0263C101.493 17.3354 99.8236 18.4205 97.2084 18.4205C94.5932 18.4205 92.9239 17.3911 92.9239 15.0263C92.9239 12.6336 94.5932 11.7433 97.2084 11.7433C99.7958 11.7433 101.493 12.7171 101.493 15.0263ZM105.861 14.915C105.861 10.3244 102.244 8.23781 97.2084 8.23781C92.1171 8.23781 88.6394 10.3244 88.6394 14.915C88.6394 19.5055 91.8667 21.9538 97.1806 21.9538C102.522 21.9538 105.861 19.5055 105.861 14.915Z" fill="white"/>
</svg>
